<?xml version="1.0" encoding="UTF-8" standalone="yes"?>
<!DOCTYPE svg PUBLIC "-//W3C//DTD SVG 1.1//EN" "http://www.w3.org/Graphics/SVG/1.1/DTD/svg11.dtd">

<svg width="500" height="500" viewBox="0 0 500 500" xmlns="http://www.w3.org/2000/svg" xmlns:xlink="http://www.w3.org/1999/xlink" version="1.1" baseProfile="full">
    <g transform="scale(1,-1) translate(0,-500)">
        <path d="M 112.363147 126.327374 Q 145.485571 124.170565 160.121061 110.998624 Q 174.756551 97.826684 174.756551 74.563958 Q 174.756551 45.138921 150.184334 23.801918 Q 125.612117 2.464914 87.713902 2.464914 L 75.543337 2.773030 Q 60.137558 3.389261 49.507571 3.389261 Q 41.804682 3.389261 30.558463 2.773030 L 17.771667 2.310856 L 17.771667 9.243457 Q 17.771667 13.696129 29.094914 16.330115 Q 31.475686 17.820122 31.174694 24.495178 Q 32.253099 200.737285 29.480059 205.821192 Q 26.090787 211.829445 12.995876 211.829445 L 2.519946 211.829445 L 2.519946 221.381028 L 15.306742 221.381028 L 29.480059 220.918855 Q 40.572219 220.456681 46.888588 220.456681 Q 56.594229 220.456681 85.248977 221.226970 L 107.741414 221.689144 Q 134.239353 221.689144 147.334265 212.445676 Q 163.818448 200.737285 163.818448 179.323252 Q 163.818448 161.760665 152.187085 148.511695 Q 140.555722 135.262726 112.363147 126.327374 Z M 61.215963 130.640992 Q 68.918852 130.178819 75.389279 130.178819 Q 106.046778 130.178819 119.295748 141.039893 Q 132.544717 151.900967 132.544717 172.390652 Q 132.544717 190.107297 121.452557 199.581851 Q 110.360396 209.056405 86.019266 209.056405 Q 75.235221 209.056405 62.602483 207.053654 Q 61.215963 188.258604 61.215963 150.206331 Z M 61.215963 17.870693 Q 75.543337 15.713884 84.940862 15.713884 Q 112.209090 15.713884 127.229724 30.272345 Q 142.250358 44.830805 142.250358 69.788167 Q 142.250358 86.426408 135.625873 97.287481 Q 129.001388 108.148555 117.061910 113.155433 Q 105.122432 118.162311 78.932608 118.162311 Q 71.075661 118.162311 61.215963 117.700138 L 61.215963 63.009624 L 61.370020 43.598343 Q 61.832194 33.122414 61.832194 27.576333 Q 61.925666 24.335954 61.215963 17.870693 Z" transform="scale(1.000000,1.000000) translate(310.000000,138.000000)" fill="#ffffff" opacity="1.000000"></path>
        <path d="M 89.368627 51.452539 L 125.110033 139.573592 Q 134.199442 162.220087 158.078399 225.845953 L 167.784040 225.845953 Q 176.873449 197.345262 192.279228 153.746909 L 229.407154 49.295730 L 257.599729 146.814308 Q 261.605231 160.833567 271.464930 200.734533 Q 272.389276 204.277863 272.389276 206.588729 Q 272.389276 209.361769 270.078410 210.748290 Q 267.767543 212.134810 258.678133 213.059156 L 244.658875 214.137561 L 244.658875 223.843201 Q 266.381023 222.764797 278.705646 222.764797 Q 291.954615 222.764797 311.519954 223.843201 L 311.519954 214.137561 L 303.508949 214.137561 Q 298.270984 214.137561 295.652002 211.672636 Q 290.722153 206.588729 272.235219 146.968366 Q 247.740031 67.474549 231.563963 2.154047 L 215.541953 2.154047 Q 212.768913 12.475919 210.920220 17.559826 Q 204.141677 37.433280 179.492431 105.064648 L 154.226955 174.390652 L 125.418149 104.602475 Q 99.536441 42.055014 87.057760 2.154047 L 71.497924 2.154047 L 63.332861 40.052263 Q 59.943590 56.844561 55.475914 75.793669 L 28.669859 191.028893 Q 24.818414 207.975249 21.737259 211.056405 Q 18.656103 214.137561 8.950462 214.137561 L 2.480035 214.137561 L 2.480035 223.843201 Q 24.510299 222.764797 40.532309 222.764797 Q 56.092145 222.764797 82.590084 223.843201 L 82.590084 214.137561 L 72.884444 214.137561 Q 62.408514 214.137561 59.250330 212.288867 Q 56.092145 210.440174 56.092145 206.280614 Q 56.092145 203.815689 56.862434 200.580476 L 67.492421 149.433291 Z" transform="scale(1.000000,1.000000) translate(15.000000,136.000000)" fill="#ffffff" opacity="1.000000"></path>
    </g>
</svg>
